# xmcd
#
# Track frame offsets: 
#        150
#        12353
#        23820
#        34253
#        45100
#        59773
#        85583
#        98608
#        111530
#        124250
#        140233
#        156215
#        173595
#        186530
#        197960
#        209148
#        218270
#        225063
#        237190
#        245845
#
# Disc length: 3488 seconds
#
# Revision: 0
# Processed by: cddbd v1.5.1PL0 Copyright (c) Steve Scherf et al.
# Submitted via: ExactAudioCopy v0.95a5
#
DISCID=190d9e14
DTITLE=Nocna Zmiana Bluesa - The Blues Nightshift
DYEAR=1992
DGENRE=Blues
TTITLE0=Rambler's Blues
TTITLE1=Sugar Coated Love
TTITLE2=32-20
TTITLE3=Black, Brown and White
TTITLE4=Too Late
TTITLE5=Help Me
TTITLE6=Blues for Charlie
TTITLE7=That's Alright, Mama
TTITLE8=Walkin' by Myself
TTITLE9=Nobody Knows You When You're Down and Out
TTITLE10=Sloppy Drunk
TTITLE11=The Thrill Is Gone
TTITLE12=Good Mornin' Little Schoolgirl
TTITLE13=Barnyard Boogie
TTITLE14=See See Rider
TTITLE15=Rollin' and Tumblin'
TTITLE16=Pistol Slapper Blues
TTITLE17=Strange Kind of Feeling
TTITLE18=Memphis, Tennessee
TTITLE19=Cocaine Habit
EXTD=
EXTT0=
EXTT1=
EXTT2=
EXTT3=
EXTT4=
EXTT5=
EXTT6=
EXTT7=
EXTT8=
EXTT9=
EXTT10=
EXTT11=
EXTT12=
EXTT13=
EXTT14=
EXTT15=
EXTT16=
EXTT17=
EXTT18=
EXTT19=
PLAYORDER=
